<svg
  xmlns="http://www.w3.org/2000/svg"
  viewBox="0 0 1128 552">
  <defs>
    <svg id="monday" width="800px" height="800px" viewBox="0 0 24 24" fill="none" xmlns="http://www.w3.org/2000/svg">
      <path d="M6.77857 6.13902C7.7289 4.78181 9.59953 4.45197 10.9568 5.4023C12.314 6.35263 12.6438 8.22327 11.6935 9.58048L5.95771 17.772C5.00738 19.1292 3.13674 19.4591 1.77953 18.5087C0.422312 17.5584 0.0924684 15.6878 1.0428 14.3305L6.77857 6.13902Z" fill="currentColor"/>
      <path d="M15.2678 6.22799C16.2182 4.87077 18.0888 4.54093 19.446 5.49126C20.8032 6.44159 21.1331 8.31223 20.1827 9.66945L14.447 17.861C13.4966 19.2182 11.626 19.548 10.2688 18.5977C8.91158 17.6474 8.58173 15.7767 9.53207 14.4195L15.2678 6.22799Z" fill="currentColor"/>
      <path d="M20.5 18.8595C22.1569 18.8595 23.5 17.5164 23.5 15.8595C23.5 14.2026 22.1569 12.8595 20.5 12.8595C18.8431 12.8595 17.5 14.2026 17.5 15.8595C17.5 17.5164 18.8431 18.8595 20.5 18.8595Z" fill="currentColor"/>
    </svg>
    <svg id="ax" xmlns="http://www.w3.org/2000/svg" viewBox="0 0 814 813" fill="currentColor">
      <g transform="translate(0.000000,813.000000) scale(0.100000,-0.100000)">
        <path d="M2589 7861 c-22 -18 -24 -27 -27 -141 -2 -67 -1 -133 2 -146 10 -37
48 -46 189 -45 122 1 162 8 179 35 4 6 8 71 8 144 0 178 7 172 -184 172 -127
0 -147 -2 -167 -19z"/>
        <path d="M1313 7729 c-39 -11 -42 -22 -42 -199 0 -108 3 -138 15 -152 14 -15
39 -17 199 -17 166 -1 184 1 199 18 15 17 17 39 14 175 -2 105 -7 159 -15 167
-15 15 -323 22 -370 8z"/>
        <path d="M3258 7430 c-171 -5 -189 -7 -207 -25 -17 -18 -19 -40 -24 -228 -4
-173 -2 -211 10 -223 12 -11 59 -14 257 -14 223 0 244 2 259 18 15 16 17 47
17 223 0 157 -3 210 -14 224 -19 26 -79 31 -298 25z"/>
        <path d="M1864 7269 c-17 -5 -36 -15 -42 -22 -12 -14 -19 -278 -8 -296 11 -17
310 -15 324 2 6 7 12 71 13 150 3 177 8 171 -144 173 -61 1 -126 -2 -143 -7z"/>
        <path d="M4668 6928 c-28 -10 -28 -10 -30 -129 -1 -65 -2 -131 -2 -146 -1 -44
29 -52 187 -44 107 5 140 9 147 21 5 8 8 76 7 150 -2 132 -2 135 -27 147 -30
15 -242 16 -282 1z"/>
        <path d="M1778 6609 c-16 -9 -18 -32 -18 -254 0 -239 0 -245 21 -256 14 -7
100 -12 243 -13 229 -2 266 3 280 39 12 32 7 470 -6 483 -15 15 -494 17 -520
1z"/>
        <path d="M3031 6498 c-16 -5 -34 -14 -40 -22 -7 -9 -12 -88 -14 -237 l-2 -224
-306 0 c-404 0 -378 22 -375 -310 1 -121 6 -229 10 -241 5 -14 2 -26 -9 -38
-15 -14 -55 -16 -369 -16 -364 0 -407 -4 -426 -40 -6 -12 -10 -189 -10 -453 0
-507 -11 -463 122 -479 110 -13 726 -3 760 12 57 27 59 36 58 431 -1 251 2
365 10 373 8 8 107 11 314 11 240 0 306 3 319 14 18 14 38 75 32 94 -9 27 -14
563 -6 576 7 11 50 13 218 12 272 -2 249 -24 258 244 6 223 1 264 -35 282 -29
13 -463 22 -509 11z"/>
        <path d="M4064 6490 c-12 -5 -26 -15 -30 -22 -5 -7 -8 -117 -9 -245 0 -207 2
-232 17 -242 24 -15 477 -16 492 -1 14 14 20 479 7 500 -9 12 -47 15 -233 17
-123 1 -233 -2 -244 -7z"/>
        <path d="M5184 6166 c-17 -7 -34 -21 -37 -29 -3 -8 -7 -124 -8 -257 -3 -243
-3 -243 20 -261 21 -17 43 -19 216 -19 151 0 195 -3 204 -14 8 -9 11 -72 9
-202 l-3 -189 -176 -5 c-136 -4 -180 -8 -194 -20 -42 -35 -45 -64 -44 -402 0
-178 4 -348 9 -378 12 -83 9 -84 -175 -88 -101 -2 -161 0 -175 8 -21 11 -21
13 -19 408 1 218 -1 404 -5 412 -19 45 -22 45 -593 48 -478 2 -543 4 -554 18
-14 18 -14 87 0 214 9 86 1 117 -31 124 -13 3 -98 7 -190 10 -233 7 -218 23
-218 -229 0 -236 -13 -219 176 -222 175 -3 180 -5 187 -85 3 -35 6 -270 7
-523 1 -252 4 -463 7 -468 16 -27 72 -30 453 -28 247 1 401 -2 410 -8 12 -9
14 -35 12 -158 -3 -100 -8 -152 -16 -161 -10 -10 -154 -13 -682 -15 -625 -2
-671 -3 -695 -20 -46 -31 -51 -57 -44 -269 6 -171 4 -196 -10 -208 -13 -11
-132 -13 -615 -14 -598 -1 -598 -1 -624 -25 -26 -24 -26 -24 -26 -306 0 -210
-3 -285 -13 -297 -17 -22 -185 -34 -209 -16 -15 12 -17 59 -22 427 -4 352 -3
418 10 443 15 28 15 28 205 28 202 0 247 8 268 48 14 26 15 710 1 732 -8 13
-61 16 -342 20 -183 3 -334 7 -335 8 -17 16 -21 48 -13 103 5 35 10 164 11
287 3 218 2 223 -19 245 -22 21 -29 22 -280 24 -141 2 -308 0 -371 -3 -174 -9
-161 21 -161 -384 0 -331 0 -331 25 -355 24 -25 24 -25 349 -25 320 0 325 0
331 -21 4 -11 7 -133 7 -271 0 -198 -3 -253 -14 -260 -7 -5 -61 -7 -123 -4
-60 3 -147 6 -192 6 -57 0 -86 4 -96 14 -11 12 -14 42 -10 148 3 105 0 138
-11 153 -13 19 -29 20 -248 23 -260 4 -311 -1 -339 -29 -18 -18 -19 -37 -19
-407 0 -435 2 -456 69 -570 103 -180 247 -444 301 -554 40 -80 97 -144 202
-226 43 -34 132 -107 198 -164 67 -57 153 -129 193 -162 40 -32 166 -138 281
-235 249 -210 286 -240 307 -252 9 -5 68 -15 130 -24 63 -9 152 -22 199 -30
47 -8 154 -23 239 -34 127 -16 157 -23 175 -40 11 -12 98 -175 191 -364 196
-394 195 -393 243 -285 16 35 39 95 51 133 24 72 85 245 101 280 5 11 53 152
106 314 54 162 105 302 113 310 9 9 174 111 366 226 391 234 343 217 530 196
55 -6 190 -20 300 -31 110 -11 288 -32 395 -46 107 -14 227 -30 265 -34 39 -5
86 -12 105 -15 31 -6 41 -2 80 30 25 21 52 47 60 59 19 28 161 200 310 375 64
75 149 178 189 229 40 51 82 98 94 105 17 9 218 13 867 15 845 3 845 3 885 27
22 12 51 34 66 46 14 13 42 38 63 54 220 172 251 206 261 283 4 26 16 92 28
147 20 90 22 135 25 459 l2 360 -100 200 c-55 111 -118 235 -141 276 -23 41
-65 122 -95 180 -30 58 -76 134 -103 170 -27 36 -201 216 -388 400 -384 381
-298 320 -728 520 -121 57 -314 148 -430 203 -453 215 -406 201 -690 204 -199
3 -256 0 -281 -11z"/>
        <path d="M688 6098 c-16 -5 -28 -17 -29 -26 0 -9 -2 -144 -4 -300 -3 -283 -3
-283 20 -298 34 -22 612 -21 635 1 12 13 15 61 15 311 0 281 -1 296 -19 310
-16 11 -73 14 -305 13 -165 0 -298 -5 -313 -11z"/>
        <path d="M0 5600 l0 -190 128 0 c181 0 172 -10 172 195 0 152 -1 165 -19 175
-11 5 -78 10 -150 10 l-131 0 0 -190z"/>
        <path d="M2740 4452 c-29 -27 -29 -27 -31 -307 -1 -154 2 -288 6 -297 13 -33
77 -39 360 -36 268 3 275 4 297 25 21 21 22 32 29 294 5 170 4 281 -2 297 -19
50 -24 51 -337 51 -293 0 -293 0 -322 -27z"/>
      </g>
    </svg>
    <svg id="evolui" xmlns="http://www.w3.org/2000/svg" viewBox="0 0 1879 1920" fill="currentColor">
      <g transform="translate(0, 1920) scale(0.1, -0.1)">
        <path d="M0 19191 c0 -4 692 -1438 1539 -3187 846 -1748 1538 -3180 1537 -3180 0 -1 -458 101 -1016 227 -558 126 -1020 228 -1027 227 -6 -2 520 -777 1169 -1723 4052 -5905 5041 -7349 5041 -7359 0 -6 -233 -676 -517 -1489 l-516 -1478 2 -613 3 -613 769 988 769 987 3097 1543 3097 1543 1175 3365 1175 3364 1189 359 c654 197 1213 365 1243 374 30 8 50 19 45 24 -5 5 -454 159 -997 343 l-988 335 -2577 -1283 -2577 -1284 -45 10 c-75 17 -154 -29 -247 -145 -13 -15 -29 -26 -35 -24 -7 3 -558 1122 -1225 2489 l-1212 2484 -53 23 c-29 13 -1236 520 -2683 1127 -3338 1400 -5981 2509 -6067 2545 -38 16 -68 26 -68 21z"/>
      </g>
    </svg>
  </defs>
</svg>
